<?xml version="1.0" standalone="no"?>
<!DOCTYPE svg PUBLIC "-//W3C//DTD SVG 20010904//EN"
 "http://www.w3.org/TR/2001/REC-SVG-20010904/DTD/svg10.dtd">
<svg version="1.0" xmlns="http://www.w3.org/2000/svg"
 width="2560.000000pt" height="1080.000000pt" viewBox="0 0 2560.000000 1080.000000"
 preserveAspectRatio="xMidYMid meet">

<g transform="translate(0.000000,1080.000000) scale(0.100000,-0.100000)"
fill="#000000" stroke="none">
<path d="M0 5400 l0 -5400 12800 0 12800 0 0 5400 0 5400 -12800 0 -12800 0 0
-5400z m11850 1686 c0 -4 -108 -76 -115 -76 -3 0 -5 36 -5 80 l0 81 60 -41
c33 -22 60 -42 60 -44z m188 -37 c-29 -21 -56 -39 -60 -39 -5 0 -8 36 -8 80
l0 81 61 -42 61 -41 -54 -39z m240 0 c-29 -21 -56 -39 -60 -39 -5 0 -8 36 -8
81 l0 80 60 -42 60 -42 -52 -38z m496 80 c32 -23 54 -45 49 -48 -22 -20 -111
-81 -117 -81 -3 0 -6 38 -6 85 0 47 4 85 8 85 5 0 35 -19 66 -41z m1664 -1165
c51 -58 12 -144 -67 -144 -32 0 -44 6 -65 31 -14 17 -26 39 -26 49 0 87 101
128 158 64z m-1535 -436 l93 93 19 -21 c19 -21 18 -21 -73 -113 l-92 -92 92
-92 c91 -92 92 -92 73 -113 l-19 -21 -93 93 -93 93 -93 -93 -93 -93 -19 21
c-19 21 -18 21 73 113 l92 92 -92 92 c-91 92 -92 92 -73 113 l19 21 93 -93 93
-93 93 93z m4177 -723 c0 -32 2 -35 19 -25 27 14 37 13 55 -6 18 -17 23 -124
6 -124 -5 0 -10 25 -10 55 0 42 -4 57 -16 62 -31 12 -49 -11 -52 -66 -5 -89
-22 -56 -22 44 0 57 4 95 10 95 6 0 10 -16 10 -35z m710 20 c-7 -8 -17 -15
-22 -15 -6 0 -5 7 2 15 7 8 17 15 22 15 6 0 5 -7 -2 -15z m-1818 -59 c4 -6 8
-21 8 -33 0 -21 -5 -23 -45 -23 -32 0 -45 -4 -45 -14 0 -24 28 -39 63 -32 30
5 31 5 12 -10 -23 -17 -64 -11 -82 13 -27 35 -11 103 27 116 19 7 53 -2 62
-17z m199 4 c13 -10 19 -19 12 -20 -6 0 -15 5 -18 10 -3 6 -17 10 -31 10 -37
0 -33 -39 6 -46 37 -8 54 -27 45 -53 -8 -27 -51 -36 -82 -16 -14 9 -22 19 -19
23 4 3 12 0 18 -6 15 -15 55 -16 63 -2 10 16 -12 37 -45 44 -24 4 -30 11 -30
30 0 24 22 45 46 46 7 0 22 -9 35 -20z m138 10 c8 0 31 -45 31 -60 0 -6 -22
-10 -50 -10 -34 0 -50 -4 -50 -13 0 -19 21 -37 45 -37 12 0 26 5 33 12 9 9 12
9 12 0 0 -35 -82 -36 -100 -2 -12 22 -13 70 -2 86 12 17 46 34 60 29 8 -3 17
-5 21 -5z m152 0 c13 -8 25 -7 39 0 14 8 26 8 40 0 17 -9 20 -20 18 -73 l-1
-62 -6 54 c-6 56 -25 79 -55 68 -12 -5 -16 -20 -16 -62 0 -30 -4 -55 -10 -55
-5 0 -10 21 -10 48 0 58 -10 75 -41 70 -22 -3 -24 -9 -27 -60 -4 -80 -22 -73
-22 8 0 51 3 65 13 61 8 -3 20 -1 28 4 18 11 26 11 50 -1z m237 -6 c17 -12 22
-25 22 -59 0 -51 -27 -79 -67 -69 -20 5 -23 3 -23 -25 0 -17 -4 -31 -10 -31
-6 0 -10 39 -10 96 0 76 3 95 13 91 8 -3 20 -1 28 4 19 12 21 11 47 -7z m104
-10 c-18 -12 -22 -25 -22 -65 0 -27 -4 -49 -10 -49 -6 0 -10 29 -10 66 0 51 3
65 13 61 8 -3 20 -1 28 3 23 15 24 0 1 -16z m138 6 c11 -11 20 -29 20 -40 0
-17 -7 -20 -50 -20 -53 0 -58 -5 -37 -35 11 -14 22 -17 48 -12 32 6 33 6 15
-8 -11 -8 -26 -15 -33 -15 -23 0 -63 48 -63 75 0 28 40 75 65 75 8 0 24 -9 35
-20z m352 8 c11 -9 18 -32 20 -71 3 -49 1 -57 -13 -54 -9 2 -23 0 -32 -5 -24
-13 -57 8 -57 37 0 26 25 45 59 45 25 0 28 28 5 37 -9 3 -25 1 -35 -5 -23 -15
-29 -15 -29 -2 0 10 34 28 56 29 5 1 17 -5 26 -11z m276 -4 c12 -8 22 -26 22
-40 0 -22 -4 -24 -45 -24 -32 0 -45 -4 -45 -14 0 -24 28 -39 63 -32 30 5 31 5
12 -10 -23 -17 -64 -11 -82 13 -27 35 -11 102 27 116 23 8 24 8 48 -9z m122 7
c0 -5 -9 -11 -20 -14 -17 -4 -20 -14 -20 -61 0 -31 -4 -56 -10 -56 -6 0 -10
29 -10 66 0 54 3 65 15 61 8 -4 17 -2 20 3 8 12 25 13 25 1z m122 -14 c4 -7 8
-36 8 -65 0 -39 -3 -52 -12 -49 -7 2 -21 0 -31 -5 -23 -12 -55 -1 -62 21 -10
32 5 51 47 57 29 5 38 11 36 23 -4 19 -46 27 -61 12 -6 -6 -16 -11 -21 -11 -6
1 0 10 13 21 26 21 68 19 83 -4z m-432 -42 c7 -24 16 -43 20 -40 4 2 13 25 20
50 7 25 17 45 21 45 5 0 9 -3 9 -6 0 -17 -44 -124 -51 -124 -8 0 -49 102 -49
121 0 24 18 -4 30 -46z m-880 -300 c-7 -8 -16 -15 -21 -15 -5 0 -6 7 -3 15 4
8 13 15 21 15 13 0 13 -3 3 -15z m226 -12 c-10 -10 -19 5 -10 18 6 11 8 11 12
0 2 -7 1 -15 -2 -18z m692 15 c-2 -6 -10 -14 -16 -16 -7 -2 -10 2 -6 12 7 18
28 22 22 4z m332 -83 c0 -57 -4 -95 -10 -95 -6 0 -10 38 -10 95 0 57 4 95 10
95 6 0 10 -38 10 -95z m-1789 35 c13 -8 25 -7 40 1 16 8 28 8 45 0 21 -9 24
-17 24 -71 0 -33 -4 -60 -10 -60 -5 0 -10 25 -10 55 0 42 -4 57 -16 62 -30 11
-49 -12 -55 -68 l-6 -54 -1 46 c-2 53 -20 83 -48 77 -16 -3 -20 -13 -22 -61
-4 -78 -22 -72 -22 7 0 63 1 65 28 69 15 2 28 5 30 6 2 0 12 -4 23 -9z m315
-4 c14 -11 19 -26 19 -61 0 -55 -23 -79 -67 -69 -26 5 -28 3 -28 -25 0 -17 -4
-31 -10 -31 -6 0 -10 39 -10 96 0 76 3 95 13 91 8 -3 20 -1 28 4 20 12 32 11
55 -5z m124 6 c0 -4 -10 -12 -22 -17 -19 -8 -24 -19 -26 -62 -4 -76 -22 -65
-22 13 0 51 3 65 13 61 8 -3 20 -1 28 4 17 11 29 11 29 1z m128 -19 c16 -22
15 -74 -2 -98 -8 -11 -26 -18 -46 -18 -40 0 -60 24 -60 70 0 65 70 94 108 46z
m333 17 c13 -8 25 -7 40 1 16 8 28 8 45 0 21 -9 24 -17 24 -71 0 -33 -4 -60
-10 -60 -5 0 -10 25 -10 55 0 42 -4 57 -16 62 -31 12 -49 -11 -52 -66 -4 -69
-22 -65 -22 4 0 42 -4 57 -16 62 -30 11 -49 -12 -55 -68 l-6 -54 -1 68 c-1 38
2 66 6 63 4 -2 14 -1 22 5 19 11 27 11 51 -1z m257 -17 c16 -22 15 -74 -2 -98
-8 -11 -26 -18 -46 -18 -40 0 -60 24 -60 70 0 65 70 94 108 46z m203 17 c15
-9 19 -22 19 -70 0 -33 -4 -60 -10 -60 -5 0 -10 25 -10 55 0 42 -4 57 -16 62
-30 11 -49 -12 -55 -68 l-6 -54 -1 68 c-1 43 2 66 8 62 5 -3 18 -1 27 4 22 13
21 13 44 1z m349 -10 c11 -11 20 -29 20 -40 0 -17 -7 -20 -49 -20 -44 0 -49
-2 -44 -20 6 -24 32 -33 70 -24 19 5 25 3 18 -4 -21 -22 -61 -24 -85 -4 -32
26 -32 88 0 114 29 23 45 23 70 -2z m-1920 -45 c0 -42 4 -57 16 -62 30 -11 49
12 55 68 l6 54 1 -66 2 -67 -32 -5 c-55 -8 -68 6 -68 73 0 33 4 60 10 60 6 0
10 -25 10 -55z m854 33 l16 -23 16 23 c25 34 39 26 16 -10 l-21 -32 20 -33
c12 -18 16 -33 10 -33 -6 0 -17 12 -24 27 l-14 26 -18 -26 c-9 -15 -22 -27
-27 -27 -6 0 -1 15 10 32 l21 32 -20 33 c-23 37 -10 46 15 11z m126 -43 c0
-37 -4 -65 -10 -65 -6 0 -10 28 -10 65 0 37 4 65 10 65 6 0 10 -28 10 -65z
m680 0 c0 -37 -4 -65 -10 -65 -6 0 -10 28 -10 65 0 37 4 65 10 65 6 0 10 -28
10 -65z m65 15 c9 -27 18 -50 20 -50 2 0 11 23 20 50 9 28 21 50 27 50 5 0 7
-6 5 -12 -3 -7 -14 -37 -23 -66 -10 -29 -23 -51 -28 -49 -14 4 -58 127 -47
127 5 0 17 -22 26 -50z m-4225 -535 c-102 -102 -189 -185 -195 -185 -6 0 -93
83 -195 185 l-185 185 190 190 190 190 190 -190 190 -190 -185 -185z m4565
465 c3 -5 -1 -10 -9 -10 -9 0 -16 5 -16 10 0 6 4 10 9 10 6 0 13 -4 16 -10z
m-6655 -245 c12 -14 15 -14 31 1 25 22 37 10 15 -15 -15 -16 -15 -19 -1 -31 9
-7 13 -15 10 -18 -2 -3 -11 1 -20 8 -13 10 -19 10 -33 -4 -24 -21 -37 -8 -15
16 15 17 15 19 -2 38 -10 11 -13 20 -8 20 6 0 16 -7 23 -15z m298 3 c10 -10
17 -10 33 0 27 17 37 7 15 -17 -15 -16 -15 -19 -1 -31 9 -7 13 -15 10 -18 -2
-3 -12 1 -20 8 -12 10 -19 10 -27 2 -7 -7 -19 -12 -27 -12 -11 0 -10 4 4 20
17 19 17 21 0 40 -19 21 -7 28 13 8z m942 -3 c11 10 20 13 20 8 0 -6 -7 -16
-15 -23 -14 -12 -14 -15 1 -31 19 -21 6 -27 -14 -7 -9 9 -15 9 -24 0 -20 -20
-33 -14 -14 7 15 16 15 19 1 31 -8 7 -15 17 -15 23 0 5 9 2 20 -8 19 -17 21
-17 40 0z"/>
<path d="M14353 5969 c-30 -11 -55 -52 -47 -75 20 -55 76 -72 114 -34 49 49
-2 133 -67 109z"/>
<path d="M15902 4758 c-21 -21 -13 -28 28 -28 38 0 40 2 30 20 -12 22 -40 26
-58 8z"/>
<path d="M16252 4758 c-21 -21 -13 -28 28 -28 38 0 40 2 30 20 -12 22 -40 26
-58 8z"/>
<path d="M16637 4763 c-4 -3 -7 -26 -7 -50 0 -47 19 -65 49 -46 20 12 27 69
10 89 -12 15 -41 19 -52 7z"/>
<path d="M16870 4750 c-10 -18 -8 -20 30 -20 41 0 49 7 28 28 -18 18 -46 14
-58 -8z"/>
<path d="M17248 4713 c-23 -6 -30 -29 -13 -43 23 -19 50 -8 53 23 3 27 -2 30
-40 20z"/>
<path d="M17512 4758 c-20 -20 -14 -28 24 -28 28 0 35 3 32 18 -4 21 -39 27
-56 10z"/>
<path d="M17745 4706 c-22 -16 -14 -46 13 -46 25 0 46 25 38 45 -7 19 -26 19
-51 1z"/>
<path d="M16204 4356 c-3 -8 -4 -31 -2 -52 3 -36 5 -39 33 -39 37 0 55 39 37
80 -13 28 -59 35 -68 11z"/>
<path d="M16451 4356 c-17 -20 -10 -77 12 -90 25 -16 51 4 55 43 4 36 -12 61
-38 61 -10 0 -23 -6 -29 -14z"/>
<path d="M17041 4356 c-17 -20 -10 -77 12 -90 25 -16 51 4 55 43 4 36 -12 61
-38 61 -10 0 -23 -6 -29 -14z"/>
<path d="M17607 4363 c-18 -18 -5 -33 29 -33 29 0 35 3 30 16 -3 9 -6 18 -6
20 0 7 -46 5 -53 -3z"/>
<path d="M12875 4160 l-180 -180 175 -175 c96 -96 179 -175 185 -175 6 0 89
79 185 175 l175 175 -180 180 -180 180 -180 -180z"/>
</g>
</svg>
